<?xml version="1.0" standalone="no"?>
<!DOCTYPE svg PUBLIC "-//W3C//DTD SVG 20010904//EN"
 "http://www.w3.org/TR/2001/REC-SVG-20010904/DTD/svg10.dtd">
<svg version="1.0" xmlns="http://www.w3.org/2000/svg"
 width="30.000000pt" height="30.000000pt" viewBox="0 0 30.000000 30.000000"
 preserveAspectRatio="xMidYMid meet">

<g transform="translate(0.000000,30.000000) scale(0.100000,-0.100000)"
fill="#ffffff" stroke="none">
<path d="M135 270 c-3 -5 -17 -10 -29 -10 -15 0 -26 -7 -29 -20 -3 -11 -12
-20 -21 -20 -10 0 -16 -9 -16 -23 0 -13 -5 -28 -12 -35 -9 -9 -9 -15 0 -24 7
-7 12 -22 12 -35 0 -14 6 -23 16 -23 9 0 18 -9 21 -20 3 -12 14 -20 27 -20 12
0 27 -5 34 -12 9 -9 15 -9 24 0 7 7 22 12 34 12 13 0 24 8 27 20 3 11 12 20
21 20 10 0 16 9 16 23 0 13 5 28 12 35 9 9 9 15 0 24 -7 7 -12 22 -12 34 0 13
-8 24 -20 27 -11 3 -20 12 -20 21 0 10 -9 16 -24 16 -14 0 -28 5 -31 10 -3 6
-10 10 -15 10 -5 0 -12 -4 -15 -10z m3 -94 c-4 -25 -36 -34 -44 -12 -8 21 13
46 32 39 8 -3 14 -15 12 -27z m36 -4 c-26 -45 -52 -77 -58 -72 -7 8 54 100 66
100 5 0 2 -13 -8 -28z m32 -37 c8 -20 -13 -45 -32 -38 -14 5 -19 34 -7 46 11
12 33 7 39 -8z"/>
</g>
</svg>
